<svg aria-hidden="true" style="position: absolute; width: 0; height: 0; overflow: hidden;" version="1.1" xmlns="http://www.w3.org/2000/svg" xmlns:xlink="http://www.w3.org/1999/xlink">
<defs>
<symbol id="icon-smartphone" viewBox="0 0 23 32">
<path fill="#757575" style="fill: var(--color1, #757575)" d="M19.429 0h-16c-1.891 0-3.429 1.346-3.429 3v26c0 1.654 1.538 3 3.429 3h16c1.891 0 3.429-1.346 3.429-3v-26c0-1.654-1.538-3-3.429-3zM3.429 2h16c0.631 0 1.143 0.448 1.143 1v21h-18.286v-21c0-0.552 0.512-1 1.143-1zM19.429 30h-16c-0.631 0-1.143-0.448-1.143-1v-3h18.286v3c0 0.552-0.512 1-1.143 1z"></path>
<path fill="#757575" style="fill: var(--color1, #757575)" d="M5.38 27.293c0.446 0.391 0.446 1.024 0 1.415s-1.17 0.391-1.616 0c-0.446-0.391-0.446-1.024 0-1.415s1.17-0.391 1.616 0z"></path>
</symbol>
<symbol id="icon-header" viewBox="0 0 43 32">
<path fill="#757575" style="fill: var(--color1, #757575)" d="M38.667 0h-34.667c-2.205 0-4 1.795-4 4v24c0 2.205 1.795 4 4 4h34.667c2.205 0 4-1.795 4-4v-24c0-2.205-1.795-4-4-4zM38.667 2.667c0.181 0 0.355 0.037 0.512 0.104l-17.845 15.467-17.845-15.467c0.151-0.065 0.327-0.104 0.512-0.104h34.667zM38.667 29.333h-34.667c-0.736 0-1.333-0.597-1.333-1.333v0-22.413l17.792 15.421c0.233 0.203 0.539 0.327 0.875 0.327s0.642-0.124 0.876-0.328l-0.002 0.001 17.792-15.421v22.413c0 0.736-0.597 1.333-1.333 1.333v0z"></path>
</symbol>
</defs>
</svg>
